# xmcd
#
# Track frame offsets:
#	150
#	8381
#	19534
#	34052
#	54154
#	71763
#	86482
#	107177
#	119571
#
# Disc length: 1837 seconds
#
# Revision: 1
# Processed by: cddbd v1.5.2PL0 Copyright (c) Steve Scherf et al.
# Submitted via: audiograbber 1.80
#
DISCID=66072b09
DTITLE=Ferienhof Kroner - Der wilde Westen
DYEAR=1900
DGENRE=
TTITLE0=Wir sind die Niedersachsen
TTITLE1=Auf meiner Ranch bin ich König
TTITLE2=Das Rote Pferd
TTITLE3=Der Gockola
TTITLE4=Cowboy und Indianer
TTITLE5=Pferd auf dem Flur
TTITLE6=Patitata
TTITLE7=Sein bestes Pferd
TTITLE8=Bei Kroners
EXTD=
EXTT0=
EXTT1=
EXTT2=
EXTT3=
EXTT4=
EXTT5=
EXTT6=
EXTT7=
EXTT8=
PLAYORDER=
